# xmcd
#
# Track frame offsets:
#	150
#	15102
#	33029
#	52328
#	67995
#	85999
#	110891
#	135887
#
# Disc length: 2140 seconds
#
# Revision: 0
# Processed by: cddbd v1.4PL0 Copyright (c) Steve Scherf et al.
#
# Submitted via: MusicManager v6.0.0.0
#
DISCID=5d085a08
DTITLE=The 17th Floor - The Dog In Me
DYEAR=2000
DGENRE=blues
TTITLE0=The Dog In Me w/o Rap
TTITLE1=The Dog In Me w/ Rap
TTITLE2=The Dog In Me (instrumental)
TTITLE3=The Dog In Me (acapella)
TTITLE4=Feel So Good (radio edit)
TTITLE5=Feel So Good 
TTITLE6=Feel So Good (instrumental)
TTITLE7=Feel So Good (acapella)
EXTD=
EXTT0=
EXTT1=
EXTT2=
EXTT3=
EXTT4=
EXTT5=
EXTT6=
EXTT7=
PLAYORDER=
